<mxfile host="app.diagrams.net" modified="2023-12-05T04:44:50.937Z" agent="Mozilla/5.0 (X11; Linux x86_64) AppleWebKit/537.36 (KHTML, like Gecko) Chrome/119.0.0.0 Safari/537.36" etag="khnL766AYNW4q4pHIgPE" version="22.1.5" type="github">
  <diagram name="Page-1" id="Qou-vyrPSm1an-S4Ps3j">
    <mxGraphModel dx="758" dy="424" grid="1" gridSize="10" guides="1" tooltips="1" connect="1" arrows="1" fold="1" page="1" pageScale="1" pageWidth="850" pageHeight="1100" math="0" shadow="0">
      <root>
        <mxCell id="0" />
        <mxCell id="1" parent="0" />
        <mxCell id="ahE1HmWSlkf-c5fxpPrb-35" value="" style="edgeStyle=orthogonalEdgeStyle;rounded=0;orthogonalLoop=1;jettySize=auto;html=1;" edge="1" parent="1" source="ahE1HmWSlkf-c5fxpPrb-1" target="ahE1HmWSlkf-c5fxpPrb-19">
          <mxGeometry relative="1" as="geometry" />
        </mxCell>
        <mxCell id="ahE1HmWSlkf-c5fxpPrb-1" value="isu lingkungan&lt;br&gt;pengelolaan sampah" style="rounded=1;whiteSpace=wrap;html=1;" vertex="1" parent="1">
          <mxGeometry x="120" y="280" width="120" height="60" as="geometry" />
        </mxCell>
        <mxCell id="ahE1HmWSlkf-c5fxpPrb-10" style="edgeStyle=orthogonalEdgeStyle;rounded=0;orthogonalLoop=1;jettySize=auto;html=1;exitX=0.5;exitY=1;exitDx=0;exitDy=0;entryX=0.5;entryY=0;entryDx=0;entryDy=0;" edge="1" parent="1" source="ahE1HmWSlkf-c5fxpPrb-2" target="ahE1HmWSlkf-c5fxpPrb-7">
          <mxGeometry relative="1" as="geometry" />
        </mxCell>
        <mxCell id="ahE1HmWSlkf-c5fxpPrb-12" style="edgeStyle=orthogonalEdgeStyle;rounded=0;orthogonalLoop=1;jettySize=auto;html=1;exitX=0.5;exitY=1;exitDx=0;exitDy=0;entryX=0.5;entryY=0;entryDx=0;entryDy=0;" edge="1" parent="1" source="ahE1HmWSlkf-c5fxpPrb-2" target="ahE1HmWSlkf-c5fxpPrb-4">
          <mxGeometry relative="1" as="geometry" />
        </mxCell>
        <mxCell id="ahE1HmWSlkf-c5fxpPrb-14" style="edgeStyle=orthogonalEdgeStyle;rounded=0;orthogonalLoop=1;jettySize=auto;html=1;exitX=0.5;exitY=1;exitDx=0;exitDy=0;" edge="1" parent="1" source="ahE1HmWSlkf-c5fxpPrb-2" target="ahE1HmWSlkf-c5fxpPrb-3">
          <mxGeometry relative="1" as="geometry" />
        </mxCell>
        <mxCell id="ahE1HmWSlkf-c5fxpPrb-15" style="edgeStyle=orthogonalEdgeStyle;rounded=0;orthogonalLoop=1;jettySize=auto;html=1;exitX=0.5;exitY=1;exitDx=0;exitDy=0;" edge="1" parent="1" source="ahE1HmWSlkf-c5fxpPrb-2" target="ahE1HmWSlkf-c5fxpPrb-6">
          <mxGeometry relative="1" as="geometry" />
        </mxCell>
        <mxCell id="ahE1HmWSlkf-c5fxpPrb-16" style="edgeStyle=orthogonalEdgeStyle;rounded=0;orthogonalLoop=1;jettySize=auto;html=1;exitX=0.5;exitY=1;exitDx=0;exitDy=0;entryX=0.5;entryY=0;entryDx=0;entryDy=0;" edge="1" parent="1" source="ahE1HmWSlkf-c5fxpPrb-2" target="ahE1HmWSlkf-c5fxpPrb-5">
          <mxGeometry relative="1" as="geometry" />
        </mxCell>
        <mxCell id="ahE1HmWSlkf-c5fxpPrb-2" value="pemanfaatan teknologi" style="rounded=1;whiteSpace=wrap;html=1;" vertex="1" parent="1">
          <mxGeometry x="400" y="60" width="120" height="60" as="geometry" />
        </mxCell>
        <mxCell id="ahE1HmWSlkf-c5fxpPrb-31" value="" style="edgeStyle=orthogonalEdgeStyle;rounded=0;orthogonalLoop=1;jettySize=auto;html=1;" edge="1" parent="1" source="ahE1HmWSlkf-c5fxpPrb-3" target="ahE1HmWSlkf-c5fxpPrb-18">
          <mxGeometry relative="1" as="geometry" />
        </mxCell>
        <mxCell id="ahE1HmWSlkf-c5fxpPrb-3" value="robotik" style="rounded=1;whiteSpace=wrap;html=1;" vertex="1" parent="1">
          <mxGeometry x="400" y="190" width="120" height="60" as="geometry" />
        </mxCell>
        <mxCell id="ahE1HmWSlkf-c5fxpPrb-24" style="edgeStyle=orthogonalEdgeStyle;rounded=0;orthogonalLoop=1;jettySize=auto;html=1;exitX=0.5;exitY=1;exitDx=0;exitDy=0;entryX=0.5;entryY=0;entryDx=0;entryDy=0;" edge="1" parent="1" source="ahE1HmWSlkf-c5fxpPrb-4" target="ahE1HmWSlkf-c5fxpPrb-19">
          <mxGeometry relative="1" as="geometry" />
        </mxCell>
        <mxCell id="ahE1HmWSlkf-c5fxpPrb-4" value="multimedia" style="rounded=1;whiteSpace=wrap;html=1;" vertex="1" parent="1">
          <mxGeometry x="260" y="190" width="120" height="60" as="geometry" />
        </mxCell>
        <mxCell id="ahE1HmWSlkf-c5fxpPrb-26" style="edgeStyle=orthogonalEdgeStyle;rounded=0;orthogonalLoop=1;jettySize=auto;html=1;exitX=0.5;exitY=1;exitDx=0;exitDy=0;entryX=0.5;entryY=0;entryDx=0;entryDy=0;" edge="1" parent="1" source="ahE1HmWSlkf-c5fxpPrb-5" target="ahE1HmWSlkf-c5fxpPrb-21">
          <mxGeometry relative="1" as="geometry" />
        </mxCell>
        <mxCell id="ahE1HmWSlkf-c5fxpPrb-5" value="prakarya/kwu" style="rounded=1;whiteSpace=wrap;html=1;" vertex="1" parent="1">
          <mxGeometry x="680" y="190" width="120" height="60" as="geometry" />
        </mxCell>
        <mxCell id="ahE1HmWSlkf-c5fxpPrb-25" style="edgeStyle=orthogonalEdgeStyle;rounded=0;orthogonalLoop=1;jettySize=auto;html=1;exitX=0.5;exitY=1;exitDx=0;exitDy=0;entryX=0.5;entryY=0;entryDx=0;entryDy=0;" edge="1" parent="1" source="ahE1HmWSlkf-c5fxpPrb-6" target="ahE1HmWSlkf-c5fxpPrb-20">
          <mxGeometry relative="1" as="geometry" />
        </mxCell>
        <mxCell id="ahE1HmWSlkf-c5fxpPrb-6" value="seni/budaya" style="rounded=1;whiteSpace=wrap;html=1;" vertex="1" parent="1">
          <mxGeometry x="540" y="190" width="120" height="60" as="geometry" />
        </mxCell>
        <mxCell id="ahE1HmWSlkf-c5fxpPrb-22" style="edgeStyle=orthogonalEdgeStyle;rounded=0;orthogonalLoop=1;jettySize=auto;html=1;exitX=0.5;exitY=1;exitDx=0;exitDy=0;entryX=0.5;entryY=0;entryDx=0;entryDy=0;" edge="1" parent="1" source="ahE1HmWSlkf-c5fxpPrb-7" target="ahE1HmWSlkf-c5fxpPrb-1">
          <mxGeometry relative="1" as="geometry" />
        </mxCell>
        <mxCell id="ahE1HmWSlkf-c5fxpPrb-7" value="karya ilmiah remaja" style="rounded=1;whiteSpace=wrap;html=1;" vertex="1" parent="1">
          <mxGeometry x="120" y="190" width="120" height="60" as="geometry" />
        </mxCell>
        <mxCell id="ahE1HmWSlkf-c5fxpPrb-32" value="" style="edgeStyle=orthogonalEdgeStyle;rounded=0;orthogonalLoop=1;jettySize=auto;html=1;" edge="1" parent="1" source="ahE1HmWSlkf-c5fxpPrb-18" target="ahE1HmWSlkf-c5fxpPrb-20">
          <mxGeometry relative="1" as="geometry" />
        </mxCell>
        <mxCell id="ahE1HmWSlkf-c5fxpPrb-18" value="membangun alat" style="rounded=1;whiteSpace=wrap;html=1;" vertex="1" parent="1">
          <mxGeometry x="400" y="280" width="120" height="60" as="geometry" />
        </mxCell>
        <mxCell id="ahE1HmWSlkf-c5fxpPrb-34" value="" style="edgeStyle=orthogonalEdgeStyle;rounded=0;orthogonalLoop=1;jettySize=auto;html=1;" edge="1" parent="1" source="ahE1HmWSlkf-c5fxpPrb-19" target="ahE1HmWSlkf-c5fxpPrb-18">
          <mxGeometry relative="1" as="geometry" />
        </mxCell>
        <mxCell id="ahE1HmWSlkf-c5fxpPrb-19" value="merancang desain berbasis aplikasi modeling" style="rounded=1;whiteSpace=wrap;html=1;" vertex="1" parent="1">
          <mxGeometry x="260" y="280" width="120" height="60" as="geometry" />
        </mxCell>
        <mxCell id="ahE1HmWSlkf-c5fxpPrb-30" value="" style="edgeStyle=orthogonalEdgeStyle;rounded=0;orthogonalLoop=1;jettySize=auto;html=1;" edge="1" parent="1" source="ahE1HmWSlkf-c5fxpPrb-20" target="ahE1HmWSlkf-c5fxpPrb-21">
          <mxGeometry relative="1" as="geometry" />
        </mxCell>
        <mxCell id="ahE1HmWSlkf-c5fxpPrb-20" value="mengokohkan nilai seni dan estetika" style="rounded=1;whiteSpace=wrap;html=1;" vertex="1" parent="1">
          <mxGeometry x="540" y="280" width="120" height="60" as="geometry" />
        </mxCell>
        <mxCell id="ahE1HmWSlkf-c5fxpPrb-21" value="display produk" style="rounded=1;whiteSpace=wrap;html=1;" vertex="1" parent="1">
          <mxGeometry x="680" y="280" width="120" height="60" as="geometry" />
        </mxCell>
      </root>
    </mxGraphModel>
  </diagram>
</mxfile>
